<?xml version="1.0" encoding="utf-8"?>
<!-- Generator: Adobe Illustrator 17.1.0, SVG Export Plug-In . SVG Version: 6.00 Build 0)  -->
<!DOCTYPE svg PUBLIC "-//W3C//DTD SVG 1.1//EN" "http://www.w3.org/Graphics/SVG/1.1/DTD/svg11.dtd">
<svg version="1.1" id="Layer_1" xmlns="http://www.w3.org/2000/svg" xmlns:xlink="http://www.w3.org/1999/xlink" x="0px" y="0px"
	 viewBox="0 0 332.7 286.1" enable-background="new 0 0 332.7 286.1" xml:space="preserve">
<g>
	<g>
		<path fill="#FFFFFF" d="M53.6,58.3c6.3-6.3,6.5-16.6,0.1-22.9c-6.3-6.3-16.7-6.3-23,0c-6.3,6.3-6.2,16.6,0.1,22.9
			C37.1,64.6,47.2,64.6,53.6,58.3z M139.7,101.9c13.6,13.6,24.7,12.1,36.8,0l5.1-5.1L164,79.3c-3.8,3.8-6.3,3.8-9,1.1l-51-51
			L85.7,47.9L139.7,101.9z M84.2,27.6c6.3-6.3,6.5-16.6,0.1-22.9c-6.3-6.3-16.7-6.3-23,0c-6.3,6.3-6.2,16.6,0.1,22.9
			C67.8,34,77.9,34,84.2,27.6z M150.9,127.6L133.3,110c-3.8,3.8-6.3,3.8-9,1.1l-51-51L55,78.5l54.1,54.1c13.6,13.6,24.7,12.1,36.8,0
			L150.9,127.6z M15.4,113.6c-25.7,25.7-16.2,47.1,5.8,69c21.9,21.9,43.3,31.5,69,5.8c26-26,16.2-47-5.8-69
			C62.5,97.4,41.4,87.6,15.4,113.6z M72.6,170.7c-11.8,11.8-21.9,4.2-32.9-6.7c-11-11-18.5-21.1-6.7-32.9
			c11.7-11.7,21.9-4.2,32.9,6.7C76.8,148.8,84.2,159.1,72.6,170.7z M314.1,197.2L262.2,249c-3-1.3-11.7-5.5-17.7-11.5
			c-6.6-6.6-5.9-12.9-0.8-18l46.3-46.3l-18.7-18.7L225,200.9c-16.7,16.7-19.1,33.1,2,54.2c6.2,6.2,17.3,12.2,23.6,14.6l-1.1,3.4
			l13.1,13.1l70.2-70.2L314.1,197.2z M240.6,123.7l-39.3,1.1l55.3-55.3l-18.4-18.4L132.9,156.5l18.4,18.4l26.1-26.1h3.7l-7.2,48.7
			l25,25l7.2-73.5l61.5,1.7L240.6,123.7z"/>
	</g>
</g>
</svg>
